<?xml version="1.0" encoding="iso-8859-1"?>
<!-- Uploaded to: SVG Repo, www.svgrepo.com, Generator: SVG Repo Mixer Tools -->
<svg height="800px" width="800px" version="1.1" id="Layer_1" xmlns="http://www.w3.org/2000/svg" xmlns:xlink="http://www.w3.org/1999/xlink" 
	 viewBox="0 0 512 512" xml:space="preserve">
<polygon style="fill:#8AD5DD;" points="512,460.944 0,460.944 96,333.232 416,333.232 "/>
<ellipse style="fill:#6CB8BC;" cx="258.64" cy="392.72" rx="81.336" ry="11.48"/>
<path style="fill:#FFFFFF;" d="M250.568,368.752c-4.184-5.488-102.16-134.288-102.16-195.36c0-69.456,43.272-114.336,110.24-114.336
	c66.96,0,110.232,44.88,110.232,114.336c0,44.144-54.984,132.832-102.072,195.376l-8.144,10.688L250.568,368.752z"/>
<path style="fill:#DB2B42;" d="M258.656,67.056c63.064,0,102.24,40.744,102.24,106.328c0,42.208-54.12,129.032-100.416,190.488
	l-1.784,2.344l-1.792-2.368c-34.76-45.448-100.488-143.752-100.488-190.472C156.416,107.8,195.592,67.056,258.656,67.056
	 M258.656,51.056c-71.856,0-118.24,48.024-118.24,122.328c0,61.936,93.136,186.272,103.776,200.184l14.464,19.104l14.552-19.104
	c10.552-14.008,103.688-138.336,103.688-200.184C376.896,99.08,330.504,51.056,258.656,51.056L258.656,51.056z"/>
<circle style="fill:#2D2D2D;" cx="258.56" cy="174.208" r="38.288"/>
</svg>